<?xml version="1.0" encoding="UTF-8" standalone="no"?>
<!-- Created with Inkscape (http://www.inkscape.org/) -->

<svg
   width="500"
   height="500"
   viewBox="0 0 500 500"
   version="1.1"
   id="svg1"
   inkscape:version="1.4.2 (1:1.4.2+202505120737+ebf0e940d0)"
   sodipodi:docname="Wuhu Games (Blue).svg"
   xml:space="preserve"
   inkscape:export-filename="Wuhu Games.png"
   inkscape:export-xdpi="96"
   inkscape:export-ydpi="96"
   xmlns:inkscape="http://www.inkscape.org/namespaces/inkscape"
   xmlns:sodipodi="http://sodipodi.sourceforge.net/DTD/sodipodi-0.dtd"
   xmlns:xlink="http://www.w3.org/1999/xlink"
   xmlns="http://www.w3.org/2000/svg"
   xmlns:svg="http://www.w3.org/2000/svg"><sodipodi:namedview
     id="namedview1"
     pagecolor="#505050"
     bordercolor="#eeeeee"
     borderopacity="1"
     inkscape:showpageshadow="0"
     inkscape:pageopacity="0"
     inkscape:pagecheckerboard="0"
     inkscape:deskcolor="#505050"
     inkscape:document-units="px"
     showgrid="true"
     showguides="true"
     inkscape:zoom="1"
     inkscape:cx="279.5"
     inkscape:cy="176.5"
     inkscape:window-width="1862"
     inkscape:window-height="1011"
     inkscape:window-x="0"
     inkscape:window-y="0"
     inkscape:window-maximized="1"
     inkscape:current-layer="g9"><inkscape:grid
       id="grid1"
       units="px"
       originx="0"
       originy="0"
       spacingx="5"
       spacingy="5"
       empcolor="#0099e5"
       empopacity="0.30196078"
       color="#0099e5"
       opacity="0.14901961"
       empspacing="5"
       enabled="true"
       visible="true" /></sodipodi:namedview><defs
     id="defs1"><linearGradient
       id="linearGradient9"
       inkscape:collect="always"><stop
         style="stop-color:#00d4ff;stop-opacity:1;"
         offset="0"
         id="stop9" /><stop
         style="stop-color:#0080ff;stop-opacity:1;"
         offset="1"
         id="stop10" /></linearGradient><clipPath
       clipPathUnits="userSpaceOnUse"
       id="clipPath18"><circle
         style="display:inline;opacity:0.15;fill:#000000;stroke-width:17.5;stroke-linecap:round"
         id="circle18"
         cx="250"
         cy="250"
         r="250"
         sodipodi:insensitive="true" /></clipPath><clipPath
       clipPathUnits="userSpaceOnUse"
       id="clipPath8"><circle
         style="fill:#e6e6e6;stroke-width:17.5;stroke-linecap:round"
         id="circle8"
         cx="250"
         cy="250"
         r="250" /></clipPath><clipPath
       clipPathUnits="userSpaceOnUse"
       id="clipPath9"><path
         id="path9"
         style="fill:#e6e6e6;stroke-width:17.5;stroke-linecap:round"
         d="m 0,0 v 350 c 190,100 275,-65 500,25 V 0 Z M 386.58789,368.89648 C 239.43335,361.66016 154.375,465 0,400 V 500 H 500 V 395 C 457.8125,378.125 420.54663,370.56641 386.58789,368.89648 Z" /></clipPath><linearGradient
       inkscape:collect="always"
       xlink:href="#linearGradient9"
       id="linearGradient10"
       x1="0"
       y1="434.26544"
       x2="500"
       y2="434.26544"
       gradientUnits="userSpaceOnUse" /><linearGradient
       inkscape:collect="always"
       xlink:href="#linearGradient9"
       id="linearGradient12"
       x1="250"
       y1="25"
       x2="250"
       y2="375"
       gradientUnits="userSpaceOnUse" /><linearGradient
       inkscape:collect="always"
       xlink:href="#linearGradient9"
       id="linearGradient25"
       x1="210"
       y1="10"
       x2="280"
       y2="175"
       gradientUnits="userSpaceOnUse" /><linearGradient
       inkscape:collect="always"
       xlink:href="#linearGradient9"
       id="linearGradient26"
       x1="210"
       y1="10"
       x2="280"
       y2="175"
       gradientUnits="userSpaceOnUse" /><linearGradient
       inkscape:collect="always"
       xlink:href="#linearGradient9"
       id="linearGradient27"
       x1="210"
       y1="10"
       x2="280"
       y2="175"
       gradientUnits="userSpaceOnUse" /><linearGradient
       inkscape:collect="always"
       xlink:href="#linearGradient9"
       id="linearGradient28"
       x1="210"
       y1="10"
       x2="280"
       y2="175"
       gradientUnits="userSpaceOnUse" /><linearGradient
       inkscape:collect="always"
       xlink:href="#linearGradient9"
       id="linearGradient29"
       x1="210"
       y1="10"
       x2="280"
       y2="175"
       gradientUnits="userSpaceOnUse" /><linearGradient
       inkscape:collect="always"
       xlink:href="#linearGradient9"
       id="linearGradient34"
       x1="250"
       y1="25"
       x2="250"
       y2="375"
       gradientUnits="userSpaceOnUse" /><linearGradient
       inkscape:collect="always"
       xlink:href="#linearGradient9"
       id="linearGradient36"
       x1="240"
       y1="255"
       x2="240"
       y2="380"
       gradientUnits="userSpaceOnUse" /><linearGradient
       inkscape:collect="always"
       xlink:href="#linearGradient9"
       id="linearGradient49"
       x1="240"
       y1="255"
       x2="240"
       y2="380"
       gradientUnits="userSpaceOnUse" /><linearGradient
       inkscape:collect="always"
       xlink:href="#linearGradient9"
       id="linearGradient52"
       x1="192.71085"
       y1="280"
       x2="192.71085"
       y2="395"
       gradientUnits="userSpaceOnUse" /><linearGradient
       inkscape:collect="always"
       xlink:href="#linearGradient9"
       id="linearGradient53"
       x1="192.71085"
       y1="280"
       x2="192.71085"
       y2="395"
       gradientUnits="userSpaceOnUse" /><linearGradient
       inkscape:collect="always"
       xlink:href="#linearGradient9"
       id="linearGradient56"
       x1="130"
       y1="291.66666"
       x2="130"
       y2="405"
       gradientUnits="userSpaceOnUse" /><linearGradient
       inkscape:collect="always"
       xlink:href="#linearGradient9"
       id="linearGradient60"
       x1="130"
       y1="291.66666"
       x2="130"
       y2="405"
       gradientUnits="userSpaceOnUse" /><linearGradient
       inkscape:collect="always"
       xlink:href="#linearGradient9"
       id="linearGradient63"
       x1="202.55568"
       y1="75.857864"
       x2="230.83995"
       y2="104.14214"
       gradientUnits="userSpaceOnUse" /></defs><path
     id="mainsymbolpath"
     style="display:none;opacity:0.15;fill:#ffffff;fill-opacity:1;stroke:none;stroke-width:1"
     d="m 190.93947,0.00130071 c -0.86261,-0.01010834 -1.76486,0.04069801 -2.66,0.0831255 C 175.25922,0.70147926 158.76654,6.9643339 137.4899,20.948878 170.57574,21.098821 204.4827,19.092257 224.02334,55.362756 212.0541,38.547371 171.89601,21.933214 140.98116,68.579678 172.09,61.411697 195.55978,57.54242 215.87706,63.841537 113.81859,82.921174 36.492657,172.46889 36.492657,280.05045 c 0,29.11548 5.761294,56.86151 16.043183,82.29405 -4.234851,0.38962 -8.508235,0.80731 -12.88442,1.08063 21.36414,7.11364 59.364089,17.87194 95.9266,17.87194 87.96522,0 141.5783,-33.49949 225.76833,-33.49949 40.85577,0 81.82072,12.26069 102.16099,19.36819 -55.20113,-58.20633 -105.1006,-118.03546 -123.5242,-187.69694 h -43.14203 c -0.30701,15.42941 -31.90703,124.65497 -166.49998,167.58061 -15.34788,-27.02352 -24.18947,-58.23077 -24.18947,-91.52096 0,-70.03217 38.77602,-130.95668 96.00973,-162.593087 -0.0865,0.758821 -0.083,1.545571 -0.083,2.327508 0,11.154459 9.04499,20.199449 20.19945,20.199449 11.15446,0 20.11632,-9.04499 20.11632,-20.199449 0,-2.002615 -0.20535,-3.992436 -0.74813,-5.818771 33.06547,40.98905 30.87117,64.07349 27.68073,86.61657 20.52507,-25.18907 46.29511,-67.71491 -12.21938,-100.24912 73.30188,24.30353 120.37724,69.98933 145.8849,104.73788 4.35234,-52.0458 -7.27863,-114.014239 -125.26982,-119.451059 -0.0846,-0.0027 -0.16466,0.0027 -0.24925,0 -0.0822,-0.008 -0.16705,0.008 -0.24924,0 -6.81016,-0.643988 -13.7155,-0.997503 -20.6982,-0.997503 -0.94928,0 -1.87984,0.07102 -2.82626,0.08299 C 298.49069,39.6351 341.65893,58.834359 374.06494,74.065813 358.13667,38.660209 313.66152,-11.326779 237.65589,55.113379 228.96806,25.566872 217.68012,0.3143573 190.93947,0.00130071 Z M 307.9799,188.36324 h 19.61757 l 2.66001,18.86944 h -24.93759 z m 58.52021,178.80253 c -84.48388,1.45742 -164.29759,56.27583 -248.79403,56.27583 -10.22836,0 -20.599923,-1.11415 -30.174486,-2.57688 C 127.8801,469.22656 188.61749,500 256.52534,500 c 84.54255,0 157.85755,-47.6708 194.67946,-117.6223 -26.75401,-7.43736 -61.54012,-15.61152 -84.70469,-15.21193 z"
     sodipodi:insensitive="true" /><g
     inkscape:groupmode="layer"
     id="layer2"
     inkscape:label="Calque 1"
     clip-path="url(#clipPath8)"><path
       id="path15"
       style="display:none;fill:#999999;stroke-width:17.5;stroke-linecap:round"
       d="m 0,350 v 50 c 190,80 275,-95 500,-5 V 375 C 275,285 190,450 0,350 Z"
       sodipodi:nodetypes="ccccc" /><g
       id="g9"
       clip-path="url(#clipPath9)"><path
         style="display:inline;fill:url(#linearGradient34);stroke-width:17.5;stroke-linecap:round;fill-opacity:1"
         d="M 145.81679,381.14524 C 25,280 95,85 227.36022,80.794252 v -25 C 110,60 -30,185 30,390"
         id="path16"
         sodipodi:nodetypes="cccc" /><circle
         style="fill:url(#linearGradient63);stroke-width:17.5;stroke-linecap:round"
         id="path7"
         cx="216.69781"
         cy="90"
         r="20" /><path
         style="display:inline;fill:url(#linearGradient29);fill-opacity:1;stroke-width:17.5;stroke-linecap:round"
         d="m 221.58602,74.308724 c 0,0 -14.86225,-13.638963 -28.49465,-13.638963 C 179.45898,60.669761 140,70 140,70 c 0,0 18.81346,-31.93922 48.38141,-31.843878 29.56795,0.09534 44.14827,29.455271 44.14827,29.455271 z"
         id="path17"
         sodipodi:nodetypes="czczcc" /><path
         style="display:inline;fill:url(#linearGradient28);stroke-width:17.5;stroke-linecap:round;fill-opacity:1"
         d="m 227.36022,69.472044 c 0,0 -4.30093,-25.592586 -22.36022,-34.472044 -17.94785,-8.824666 -60,-10 -60,-10 0,0 50.76975,-19.7434165 80,-10 29.23025,9.743417 15,55 15,55"
         id="path18"
         sodipodi:nodetypes="csczc" /><path
         style="fill:url(#linearGradient27);stroke-width:17.5;stroke-linecap:round;fill-opacity:1"
         d="m 225,65 c 0,0 43.94649,-43.172299 81.97324,-42.489014 C 345,23.194271 360,60 360,60 c 0,0 -40,-10 -60,-10 -20,0 -72.63978,19.472044 -72.63978,19.472044 z"
         id="path1" /><path
         style="fill:url(#linearGradient25);stroke-width:17.5;stroke-linecap:round;fill-opacity:1"
         d="m 225,70 c 0,0 41.91781,5 60,15 18.08219,10 40,30 40,30 0,0 -10,-40 -30,-50 -20,-10 -67.63978,-2.219928 -67.63978,-2.219928"
         id="path5"
         sodipodi:nodetypes="cscsc" /><path
         style="fill:url(#linearGradient26);stroke-width:17.5;stroke-linecap:round;fill-opacity:1"
         d="m 216.69782,70 c 0,0 39.19105,33.23725 48.0827,56.41623 8.89166,23.17898 4.54624,49.64447 4.54624,49.64447 0,0 26.06327,-28.88903 23.36825,-57.47487 C 290,90 250,70 250,70 Z"
         id="path6"
         sodipodi:nodetypes="czczcc" /><path
         style="display:inline;fill:url(#linearGradient12);stroke-width:17.5;stroke-linecap:round;fill-opacity:1"
         d="m 325,125 15,-5 20,5 15,-2.5 C 400,222.5 500,350 500,350 V 500 H 125 V 400 c 0,0 175,-150 200,-275 z"
         id="path2"
         sodipodi:nodetypes="ccccccccc" /><path
         style="display:inline;fill:url(#linearGradient36);fill-opacity:1;stroke-width:17.5;stroke-linecap:round"
         d="m 240,255 50,25 v 95 l -50,5 -30,-115 z"
         id="path3"
         sodipodi:nodetypes="cccccc" /><path
         style="display:inline;fill:url(#linearGradient49);stroke-width:17.5;stroke-linecap:round;fill-opacity:1"
         d="m 240,255 -30,10 v 115 h 30 z"
         id="path4" /><path
         style="display:inline;fill:url(#linearGradient53);fill-opacity:1;stroke-width:17.5;stroke-linecap:round"
         d="M 230,291.54851 192.71084,280 155,291.25686 192.71084,395 230,385 Z"
         id="path11"
         sodipodi:nodetypes="cccccc" /><path
         style="display:inline;fill:url(#linearGradient52);fill-opacity:1;stroke-width:17.5;stroke-linecap:round"
         d="M 192.71084,280 155,291.25686 V 395 h 37.71084 z"
         id="path12" /><path
         style="display:inline;fill:url(#linearGradient56);fill-opacity:1;stroke-width:17.5;stroke-linecap:round"
         d="m 130,291.66667 45,9.54188 V 400 l -45,5 -35,-101.66667 z"
         id="path13"
         sodipodi:nodetypes="cccccc" /><path
         style="display:inline;fill:url(#linearGradient60);stroke-width:17.5;stroke-linecap:round;fill-opacity:1"
         d="M 130,291.66666 95,303.33333 V 405 h 35 z"
         id="path14"
         sodipodi:nodetypes="ccccc" /><path
         id="rect8"
         style="fill:url(#linearGradient10);stroke-width:17.5;stroke-linecap:round"
         d="M 386.58789,368.89648 C 239.43335,361.66016 154.375,465 0,400 V 500 H 500 V 395 C 457.8125,378.125 420.54663,370.56641 386.58789,368.89648 Z"
         sodipodi:nodetypes="sccccs" /></g></g></svg>
